<svg xmlns="http://www.w3.org/2000/svg" width="512" height="512" viewBox="0 0 512 512">
  <defs>
    <linearGradient id="bg" x1="0" y1="0" x2="1" y2="1">
      <stop offset="0" stop-color="#8b5cf6"/>
      <stop offset="0.55" stop-color="#6d28d9"/>
      <stop offset="1" stop-color="#4c1d95"/>
    </linearGradient>
    <radialGradient id="glow" cx="0.35" cy="0.28" r="0.75">
      <stop offset="0" stop-color="#ffffff" stop-opacity="0.22"/>
      <stop offset="0.55" stop-color="#ffffff" stop-opacity="0.06"/>
      <stop offset="1" stop-color="#ffffff" stop-opacity="0"/>
    </radialGradient>
    <linearGradient id="onion" x1="0" y1="0" x2="0" y2="1">
      <stop offset="0" stop-color="#f3edff"/>
      <stop offset="1" stop-color="#ddd3ff"/>
    </linearGradient>
  </defs>

  <!-- Rounded-square background -->
  <rect x="24" y="24" width="464" height="464" rx="104" fill="url(#bg)"/>
  <rect x="24" y="24" width="464" height="464" rx="104" fill="url(#glow)"/>

  <!-- Onion stem sprouts -->
  <g fill="none" stroke="#e9e1ff" stroke-width="13" stroke-linecap="round">
    <path d="M256 104 C 252 70 296 52 318 24"/>
    <path d="M256 104 C 252 70 216 52 194 24"/>
  </g>

  <!-- Onion layers -->
  <g stroke="#c4b5fd" stroke-width="3" stroke-linejoin="round">
    <!-- Layer 1 (outer) -->
    <path fill="#eee8ff" d="M256 108 C 314 130 408 208 408 302 C 408 382 342 434 256 434 C 170 434 104 382 104 302 C 104 208 198 130 256 108 Z"/>
    <!-- Layer 2 -->
    <path fill="#e4dbff" d="M256 158 C 298 176 364 236 364 308 C 364 372 314 412 256 412 C 198 412 148 372 148 308 C 148 236 214 176 256 158 Z"/>
    <!-- Layer 3 -->
    <path fill="#d9cbff" d="M256 206 C 286 220 326 264 326 314 C 326 362 292 392 256 392 C 220 392 186 362 186 314 C 186 264 226 220 256 206 Z"/>
    <!-- Layer 4 (core) -->
    <path fill="#cdbbff" d="M256 248 C 274 258 292 286 292 316 C 292 348 272 370 256 370 C 240 370 220 348 220 316 C 220 286 238 258 256 248 Z"/>
  </g>

  <!-- Roots -->
  <g fill="none" stroke="#e9e1ff" stroke-width="9" stroke-linecap="round">
    <path d="M256 434 C 254 448 254 458 258 470"/>
    <path d="M238 432 C 234 444 232 452 228 462"/>
    <path d="M274 432 C 278 444 280 452 284 462"/>
  </g>

  <!-- Phone handset badge -->
  <g transform="translate(201 233.75) scale(5.5)">
    <path fill="#3b0764" d="M22 16.92v3a2 2 0 0 1-2.18 2 19.79 19.79 0 0 1-8.63-3.07 19.5 19.5 0 0 1-6-6 19.79 19.79 0 0 1-3.07-8.67A2 2 0 0 1 4.11 2h3a2 2 0 0 1 2 1.72 12.84 12.84 0 0 0 .7 2.81 2 2 0 0 1-.45 2.11L8.09 9.91a16 16 0 0 0 6 6l1.27-1.27a2 2 0 0 1 2.11-.45 12.84 12.84 0 0 0 2.81.7A2 2 0 0 1 22 16.92z"/>
  </g>
</svg>
